<svg width="1000" height="1000" viewBox="0 0 1000 1000" xmlns="http://www.w3.org/2000/svg"><defs/><path fill="#a855f7" transform="matrix(0.5162636370493418 0 0 0.5162636370493416 47.76896584137751 74.93222078425435)" d="M 226.77098544634 850.40022789844 C 224.97098544634 849.80022789844 223.87098544634 850.80022789844 224.27098544634 852.60022789844 C 225.17098544634 857.10022789844 226.27098544634 861.40022789844 227.67098544634 865.70022789844 C 240.57098544634 906.40022789844 273.37098544634 938.30022789844 314.57098544634 950.00022789844 C 318.57098544634 951.10022789844 322.67098544634 952.10022789844 326.77098544634 952.80022789844 C 328.57098544634 953.10022789844 329.67098544634 951.90022789844 329.17098544634 950.10022789844 L 309.17098544634 879.80022789844 L 226.77098544634 850.40022789844 Z M 242.77098544634 871.10022789844 L 298.57098544634 891.10022789844 L 310.67098544634 935.80022789844 C 279.87098544634 924.80022789844 255.17098544634 901.10022789844 242.77098544634 871.10022789844 Z"/><path fill="#a855f7" transform="matrix(0.5162636370493418 0 0 0.5162636370493416 47.76896584137751 74.93222078425435)" d="M 228.37098544634 786.10022789844 C 226.97098544634 790.30022789844 225.67098544634 794.70022789844 224.67098544634 799.10022789844 C 224.27098544634 800.90022789844 225.37098544634 801.90022789844 227.17098544634 801.30022789844 L 472.97098544634 716.20022789844 C 474.77098544634 715.60022789844 475.47098544634 716.40022789844 474.67098544634 718.10022789844 L 357.67098544634 951.70022789844 C 356.87098544634 953.40022789844 357.67098544634 954.60022789844 359.57098544634 954.50022789844 C 364.07098544634 954.10022789844 368.57098544634 953.50022789844 372.97098544634 952.70022789844 C 432.27098544634 941.60022789844 477.17098544634 889.50022789844 477.17098544634 827.10022789844 C 477.17098544634 806.80022789844 472.47098544634 787.70022789844 463.97098544634 770.60022789844 L 501.67098544634 694.30022789844 C 502.47098544634 692.60022789844 501.77098544634 691.80022789844 499.97098544634 692.40022789844 L 419.47098544634 720.20022789844 C 399.37098544634 707.00022789844 375.27098544634 699.20022789844 349.37098544634 699.20022789844 C 293.27098544634 699.30022789844 245.47098544634 735.70022789844 228.37098544634 786.10022789844 Z M 243.67098544634 780.80022789844 C 261.57098544634 740.10022789844 302.17098544634 711.70022789844 349.37098544634 711.70022789844 C 369.17098544634 711.70022789844 387.87098544634 716.70022789844 404.17098544634 725.50022789844 L 243.67098544634 780.80022789844 Z M 464.77098544634 827.10022789844 C 464.77098544634 880.10022789844 428.87098544634 924.80022789844 380.17098544634 938.30022789844 L 456.87098544634 784.90022789844 C 461.97098544634 798.00022789844 464.77098544634 812.20022789844 464.77098544634 827.10022789844 Z"/><path fill="#6366f1" transform="matrix(0.5162636370493418 0 0 0.5162636370493416 47.76896584137751 74.93222078425435)" d="M 377.37098544634 804.30022789844 L 305.87098544634 865.00022789844 L 199.37098544634 826.90022789844 C 197.57098544634 826.30022789844 197.57098544634 825.30022789844 199.37098544634 824.70022789844 L 447.17098544634 738.80022789844 C 448.97098544634 738.20022789844 449.67098544634 739.00022789844 448.87098544634 740.70022789844 L 344.57098544634 949.20022789844 C 343.77098544634 950.90022789844 342.67098544634 950.80022789844 342.17098544634 949.00022789844 L 322.27098544634 875.10022789844 L 377.37098544634 804.30022789844 Z"/><path id="text" fill="#a855f7" transform="matrix(1.0901111278567848 0 0 1.0901111278567848 289.3105468409445 69.4609668774184)" d="M 95.87755549022 364.85367267149 L 95.87755549022 378.29367267149 L 79.46155549022 378.29367267149 L 79.46155549022 425.04567267149 L 64.58155549022 425.04567267149 L 64.58155549022 378.29367267149 L 48.16555549022 378.29367267149 L 48.16555549022 364.85367267149 L 95.87755549022 364.85367267149 Z M 116.51755549022 405.65367267149 L 116.51755549022 425.04567267149 L 101.63755549022 425.04567267149 L 101.63755549022 364.85367267149 L 123.62155549022 364.85367267149 C 132.90155549022 364.85367267149 139.49355549022 366.42167267149 143.39755549022 369.55767267149 C 147.30155549022 372.69367267149 149.25355549022 377.90967267149 149.25355549022 385.20567267149 C 149.25355549022 390.13367267149 148.21355549022 394.14967267149 146.13355549022 397.25367267149 C 144.05355549022 400.35767267149 140.90155549022 402.61367267149 136.67755549022 404.02167267149 L 151.36555549022 425.04567267149 L 133.50955549022 425.04567267149 L 121.02955549022 405.65367267149 L 116.51755549022 405.65367267149 Z M 134.18155549022 385.20567267149 C 134.18155549022 382.64567267149 133.41355549022 380.85367267149 131.87755549022 379.82967267149 C 130.34155549022 378.80567267149 127.58955549022 378.29367267149 123.62155549022 378.29367267149 L 116.51755549022 378.29367267149 L 116.51755549022 393.65367267149 L 123.62155549022 393.65367267149 C 127.58955549022 393.65367267149 130.34155549022 393.02967267149 131.87755549022 391.78167267149 C 133.41355549022 390.53367267149 134.18155549022 388.34167267149 134.18155549022 385.20567267149 Z M 167.78155549022 425.04567267149 L 152.13355549022 425.04567267149 L 174.40555549022 364.85367267149 L 189.86155549022 364.85367267149 L 211.55755549022 425.04567267149 L 196.00555549022 425.04567267149 L 192.83755549022 414.96567267149 L 170.94955549022 414.96567267149 L 167.78155549022 425.04567267149 Z M 181.79755549022 379.63767267149 C 181.28555549022 381.42967267149 180.72555549022 383.33367267149 180.11755549022 385.34967267149 C 179.50955549022 387.36567267149 178.50155549022 390.64567267149 177.09355549022 395.18967267149 L 174.59755549022 403.15767267149 L 189.09355549022 403.15767267149 L 186.59755549022 395.18967267149 C 185.76555549022 392.75767267149 184.93355549022 390.18167267149 184.10155549022 387.46167267149 C 183.26955549022 384.74167267149 182.50155549022 382.13367267149 181.79755549022 379.63767267149 Z M 240.06955549022 412.08567267149 C 242.62955549022 412.08567267149 245.41355549022 411.81367267149 248.42155549022 411.26967267149 C 251.42955549022 410.72567267149 254.11755549022 410.00567267149 256.48555549022 409.10967267149 L 256.48555549022 422.26167267149 C 252.96555549022 423.66967267149 249.79755549022 424.64567267149 246.98155549022 425.18967267149 C 244.16555549022 425.73367267149 241.22155549022 426.00567267149 238.14955549022 426.00567267149 C 232.58155549022 426.00567267149 228.13355549022 425.36567267149 224.80555549022 424.08567267149 C 221.47755549022 422.80567267149 218.82155549022 420.75767267149 216.83755549022 417.94167267149 C 215.17355549022 415.50967267149 213.94155549022 412.40567267149 213.14155549022 408.62967267149 C 212.34155549022 404.85367267149 211.94155549022 400.27767267149 211.94155549022 394.90167267149 C 211.94155549022 384.14967267149 214.26155549022 376.29367267149 218.90155549022 371.33367267149 C 223.54155549022 366.37367267149 230.91755549022 363.89367267149 241.02955549022 363.89367267149 C 243.97355549022 363.89367267149 246.59755549022 363.95767267149 248.90155549022 364.08567267149 C 251.20555549022 364.21367267149 253.28555549022 364.43767267149 255.14155549022 364.75767267149 L 255.14155549022 377.71767267149 C 253.02955549022 377.58967267149 250.83755549022 377.49367267149 248.56555549022 377.42967267149 C 246.29355549022 377.36567267149 243.78155549022 377.33367267149 241.02955549022 377.33367267149 C 237.50955549022 377.33367267149 234.90155549022 377.66967267149 233.20555549022 378.34167267149 C 231.50955549022 379.01367267149 230.24555549022 380.18167267149 229.41355549022 381.84567267149 C 228.64555549022 383.12567267149 228.10155549022 384.82167267149 227.78155549022 386.93367267149 C 227.46155549022 389.04567267149 227.30155549022 391.70167267149 227.30155549022 394.90167267149 C 227.30155549022 397.90967267149 227.44555549022 400.42167267149 227.73355549022 402.43767267149 C 228.02155549022 404.45367267149 228.48555549022 406.13367267149 229.12555549022 407.47767267149 C 229.95755549022 409.14167267149 231.17355549022 410.32567267149 232.77355549022 411.02967267149 C 234.37355549022 411.73367267149 236.80555549022 412.08567267149 240.06955549022 412.08567267149 Z M 294.30955549022 394.03767267149 L 316.86955549022 425.04567267149 L 298.05355549022 425.04567267149 L 281.63755549022 400.46967267149 L 277.60555549022 400.46967267149 L 277.60555549022 425.04567267149 L 262.72555549022 425.04567267149 L 262.72555549022 364.85367267149 L 277.60555549022 364.85367267149 L 277.60555549022 388.56567267149 L 281.63755549022 388.56567267149 L 298.24555549022 364.85367267149 L 316.10155549022 364.85367267149 L 294.30955549022 394.03767267149 Z M 331.55755549022 425.04567267149 L 315.71755549022 364.85367267149 L 331.84555549022 364.85367267149 L 338.18155549022 394.61367267149 C 338.43755549022 395.63767267149 338.70955549022 397.01367267149 338.99755549022 398.74167267149 C 339.28555549022 400.46967267149 339.78155549022 403.79767267149 340.48555549022 408.72567267149 C 340.67755549022 407.50967267149 341.04555549022 405.17367267149 341.58955549022 401.71767267149 C 342.13355549022 398.26167267149 342.53355549022 395.92567267149 342.78955549022 394.70967267149 L 348.93355549022 364.85367267149 L 364.48555549022 364.85367267149 L 370.82155549022 394.61367267149 C 371.07755549022 395.63767267149 371.34955549022 397.01367267149 371.63755549022 398.74167267149 C 371.92555549022 400.46967267149 372.42155549022 403.79767267149 373.12555549022 408.72567267149 C 373.31755549022 407.50967267149 373.68555549022 405.17367267149 374.22955549022 401.71767267149 C 374.77355549022 398.26167267149 375.17355549022 395.92567267149 375.42955549022 394.70967267149 L 381.57355549022 364.85367267149 L 397.22155549022 364.85367267149 L 381.47755549022 425.04567267149 L 364.29355549022 425.04567267149 L 360.45355549022 406.80567267149 C 359.81355549022 403.73367267149 359.17355549022 400.50167267149 358.53355549022 397.10967267149 C 357.89355549022 393.71767267149 357.22155549022 389.97367267149 356.51755549022 385.87767267149 C 355.49355549022 391.57367267149 354.69355549022 395.86167267149 354.11755549022 398.74167267149 C 353.54155549022 401.62167267149 352.99755549022 404.30967267149 352.48555549022 406.80567267149 L 348.64555549022 425.04567267149 L 331.55755549022 425.04567267149 Z M 416.70955549022 364.85367267149 L 416.70955549022 425.04567267149 L 401.82955549022 425.04567267149 L 401.82955549022 364.85367267149 L 416.70955549022 364.85367267149 Z M 448.77355549022 402.58167267149 L 436.58155549022 399.70167267149 C 431.71755549022 398.54967267149 428.40555549022 396.78967267149 426.64555549022 394.42167267149 C 424.88555549022 392.05367267149 424.00555549022 388.66167267149 424.00555549022 384.24567267149 C 424.00555549022 377.26967267149 425.84555549022 372.13367267149 429.52555549022 368.83767267149 C 433.20555549022 365.54167267149 438.91755549022 363.89367267149 446.66155549022 363.89367267149 C 449.86155549022 363.89367267149 452.70955549022 364.02167267149 455.20555549022 364.27767267149 C 457.70155549022 364.53367267149 460.00555549022 364.98167267149 462.11755549022 365.62167267149 L 462.11755549022 378.96567267149 C 457.25355549022 378.13367267149 453.90955549022 377.65367267149 452.08555549022 377.52567267149 C 450.26155549022 377.39767267149 448.35755549022 377.33367267149 446.37355549022 377.33367267149 C 443.68555549022 377.33367267149 441.73355549022 377.78167267149 440.51755549022 378.67767267149 C 439.30155549022 379.57367267149 438.69355549022 381.07767267149 438.69355549022 383.18967267149 C 438.69355549022 384.21367267149 438.88555549022 384.99767267149 439.26955549022 385.54167267149 C 439.65355549022 386.08567267149 440.38955549022 386.48567267149 441.47755549022 386.74167267149 L 452.99755549022 389.42967267149 C 456.32555549022 390.19767267149 458.72555549022 390.94967267149 460.19755549022 391.68567267149 C 461.66955549022 392.42167267149 462.85355549022 393.36567267149 463.74955549022 394.51767267149 C 464.77355549022 395.73367267149 465.52555549022 397.30167267149 466.00555549022 399.22167267149 C 466.48555549022 401.14167267149 466.72555549022 403.47767267149 466.72555549022 406.22967267149 C 466.72555549022 413.20567267149 464.86955549022 418.24567267149 461.15755549022 421.34967267149 C 457.44555549022 424.45367267149 451.68555549022 426.00567267149 443.87755549022 426.00567267149 C 439.90955549022 426.00567267149 436.13355549022 425.76567267149 432.54955549022 425.28567267149 C 428.96555549022 424.80567267149 426.18155549022 424.21367267149 424.19755549022 423.50967267149 L 424.19755549022 409.39767267149 C 426.75755549022 410.22967267149 429.79755549022 410.88567267149 433.31755549022 411.36567267149 C 436.83755549022 411.84567267149 440.35755549022 412.08567267149 443.87755549022 412.08567267149 C 446.69355549022 412.08567267149 448.64555549022 411.73367267149 449.73355549022 411.02967267149 C 450.82155549022 410.32567267149 451.36555549022 408.91767267149 451.36555549022 406.80567267149 C 451.36555549022 405.46167267149 451.18955549022 404.48567267149 450.83755549022 403.87767267149 C 450.48555549022 403.26967267149 449.79755549022 402.83767267149 448.77355549022 402.58167267149 Z M 514.34155549022 411.12567267149 L 514.34155549022 425.04567267149 L 472.86955549022 425.04567267149 L 472.86955549022 364.85367267149 L 513.47755549022 364.85367267149 L 513.47755549022 378.29367267149 L 487.74955549022 378.29367267149 L 487.74955549022 388.27767267149 L 509.92555549022 388.27767267149 L 509.92555549022 400.75767267149 L 487.74955549022 400.75767267149 L 487.74955549022 411.12567267149 L 514.34155549022 411.12567267149 Z"/></svg>